<svg width="1440" height="103" viewBox="0 0 1440 103" fill="none" xmlns="http://www.w3.org/2000/svg">
<mask id="mask0_36_185" style="mask-type:alpha" maskUnits="userSpaceOnUse" x="0" y="-6" width="1440" height="109">
<rect y="-6" width="1440" height="109" fill="white"/>
</mask>
<g mask="url(#mask0_36_185)">
<g filter="url(#filter0_dd_36_185)">
<circle cx="12.5" cy="12.5" r="12.5" transform="matrix(-1 0 0 1 84 73)" fill="#4174D9"/>
<circle cx="12.5" cy="12.5" r="12.5" transform="matrix(-1 0 0 1 388 1)" fill="#4174D9"/>
<circle cx="12.5" cy="12.5" r="12.5" transform="matrix(-1 0 0 1 12 7)" fill="#4174D9"/>
<circle cx="12.5" cy="12.5" r="12.5" transform="matrix(-1 0 0 1 332 73)" fill="#4174D9"/>
<circle cx="12.5" cy="12.5" r="12.5" transform="matrix(-1 0 0 1 208 51)" fill="#4174D9"/>
<line y1="-1" x2="107.187" y2="-1" transform="matrix(-0.858315 -0.513123 -0.513123 0.858315 374 12)" stroke="#2E6FF2" stroke-width="2" stroke-dasharray="13 13"/>
<line y1="-1" x2="140.207" y2="-1" transform="matrix(-0.591982 0.805951 0.805951 0.591982 72 85)" stroke="#2E6FF2" stroke-width="2" stroke-dasharray="13 13"/>
<line y1="-1" x2="98.0816" y2="-1" transform="matrix(-0.774865 -0.632127 -0.632127 0.774865 71 85)" stroke="#2E6FF2" stroke-width="2" stroke-dasharray="13 13"/>
<line y1="-1" x2="215.114" y2="-1" transform="matrix(-0.897199 0.441626 0.441626 0.897199 319 87)" stroke="#2E6FF2" stroke-width="2" stroke-dasharray="13 13"/>
<line y1="-1" x2="133.522" y2="-1" transform="matrix(-0.284598 -0.958647 -0.958647 0.284598 322 85)" stroke="#2E6FF2" stroke-width="2" stroke-dasharray="13 13"/>
<line y1="-1" x2="144.627" y2="-1" transform="matrix(-0.615376 0.788234 0.788234 0.615376 284 -45)" stroke="#2E6FF2" stroke-width="2" stroke-dasharray="13 13"/>
<line y1="-1" x2="179.402" y2="-1" transform="matrix(-0.066889 -0.99776 -0.99776 0.066889 388 192)" stroke="#2E6FF2" stroke-width="2" stroke-dasharray="13 13"/>
<line y1="-1" x2="113.877" y2="-1" transform="matrix(-0.860577 0.509321 0.509321 0.860577 102 -39)" stroke="#2E6FF2" stroke-width="2" stroke-dasharray="13 13"/>
<line y1="-1" x2="122.188" y2="-1" transform="matrix(-0.482861 -0.875697 -0.875697 0.482861 130 192)" stroke="#2E6FF2" stroke-width="2" stroke-dasharray="13 13"/>
<line y1="-1" x2="120.669" y2="-1" transform="matrix(-0.986169 0.165743 0.165743 0.986169 191 65)" stroke="#2E6FF2" stroke-width="2" stroke-dasharray="13 13"/>
<line y1="-1" x2="143.178" y2="-1" transform="matrix(-0.656524 -0.754305 -0.754305 0.656524 195 65)" stroke="#2E6FF2" stroke-width="2" stroke-dasharray="13 13"/>
<line y1="-1" x2="146.492" y2="-1" transform="matrix(0.532451 -0.846461 -0.846461 -0.532451 242 209)" stroke="#2E6FF2" stroke-width="2" stroke-dasharray="13 13"/>
<line y1="-1" x2="128.891" y2="-1" transform="matrix(-0.985325 -0.170686 -0.170686 0.985325 320 87)" stroke="#2E6FF2" stroke-width="2" stroke-dasharray="13 13"/>
<line y1="-1" x2="122.642" y2="-1" transform="matrix(-0.529999 -0.847998 -0.847998 0.529999 385 192)" stroke="#2E6FF2" stroke-width="2" stroke-dasharray="13 13"/>
<line y1="-1" x2="96.8298" y2="-1" transform="matrix(-0.619644 0.784883 0.784883 0.619644 376 12)" stroke="#2E6FF2" stroke-width="2" stroke-dasharray="13 13"/>
<line y1="-1" x2="57.9741" y2="-1" transform="matrix(-0.965948 0.258736 0.258736 0.965948 444 -4)" stroke="#2E6FF2" stroke-width="2" stroke-dasharray="13 13"/>
<line y1="-1" x2="54.3783" y2="-1" transform="matrix(-0.845926 -0.533301 -0.533301 0.845926 3 19)" stroke="#2E6FF2" stroke-width="2" stroke-dasharray="13 13"/>
</g>
<g filter="url(#filter1_dd_36_185)">
<circle cx="1368.5" cy="85.5" r="12.5" fill="#4174D9"/>
<circle cx="1064.5" cy="13.5" r="12.5" fill="#4174D9"/>
<circle cx="1440.5" cy="19.5" r="12.5" fill="#4174D9"/>
<circle cx="1120.5" cy="85.5" r="12.5" fill="#4174D9"/>
<circle cx="1244.5" cy="63.5" r="12.5" fill="#4174D9"/>
<line x1="1065.49" y1="11.1417" x2="1157.49" y2="-43.8583" stroke="#2E6FF2" stroke-width="2" stroke-dasharray="13 13"/>
<line x1="1368.81" y1="84.408" x2="1451.81" y2="197.408" stroke="#2E6FF2" stroke-width="2" stroke-dasharray="13 13"/>
<line x1="1368.37" y1="84.2251" x2="1444.37" y2="22.2251" stroke="#2E6FF2" stroke-width="2" stroke-dasharray="13 13"/>
<line x1="1121.44" y1="86.1028" x2="1314.44" y2="181.103" stroke="#2E6FF2" stroke-width="2" stroke-dasharray="13 13"/>
<line x1="1117.04" y1="84.7154" x2="1155.04" y2="-43.2846" stroke="#2E6FF2" stroke-width="2" stroke-dasharray="13 13"/>
<line x1="1156.79" y1="-45.6154" x2="1245.79" y2="68.3846" stroke="#2E6FF2" stroke-width="2" stroke-dasharray="13 13"/>
<line x1="1051" y1="191.933" x2="1063" y2="12.9331" stroke="#2E6FF2" stroke-width="2" stroke-dasharray="13 13"/>
<line x1="1338.51" y1="-39.8606" x2="1436.51" y2="18.1394" stroke="#2E6FF2" stroke-width="2" stroke-dasharray="13 13"/>
<line x1="1309.12" y1="191.517" x2="1368.12" y2="84.5171" stroke="#2E6FF2" stroke-width="2" stroke-dasharray="13 13"/>
<line x1="1249.17" y1="64.0138" x2="1368.17" y2="84.0138" stroke="#2E6FF2" stroke-width="2" stroke-dasharray="13 13"/>
<line x1="1244.25" y1="64.3435" x2="1338.25" y2="-43.6565" stroke="#2E6FF2" stroke-width="2" stroke-dasharray="13 13"/>
<line x1="1197.15" y1="209.532" x2="1119.15" y2="85.5324" stroke="#2E6FF2" stroke-width="2" stroke-dasharray="13 13"/>
<line x1="1119.83" y1="86.0147" x2="1246.83" y2="64.0147" stroke="#2E6FF2" stroke-width="2" stroke-dasharray="13 13"/>
<line x1="1054.15" y1="191.47" x2="1119.15" y2="87.47" stroke="#2E6FF2" stroke-width="2" stroke-dasharray="13 13"/>
<line x1="1064.78" y1="11.3804" x2="1124.78" y2="87.3804" stroke="#2E6FF2" stroke-width="2" stroke-dasharray="13 13"/>
<line x1="996.259" y1="-4.96595" x2="1052.26" y2="10.0341" stroke="#2E6FF2" stroke-width="2" stroke-dasharray="13 13"/>
<line x1="1436.47" y1="18.1541" x2="1482.47" y2="-10.8459" stroke="#2E6FF2" stroke-width="2" stroke-dasharray="13 13"/>
</g>
</g>
<defs>
<filter id="filter0_dd_36_185" x="-89" y="-138" width="537" height="477" filterUnits="userSpaceOnUse" color-interpolation-filters="sRGB">
<feFlood flood-opacity="0" result="BackgroundImageFix"/>
<feColorMatrix in="SourceAlpha" type="matrix" values="0 0 0 0 0 0 0 0 0 0 0 0 0 0 0 0 0 0 127 0" result="hardAlpha"/>
<feOffset dy="4"/>
<feGaussianBlur stdDeviation="2"/>
<feComposite in2="hardAlpha" operator="out"/>
<feColorMatrix type="matrix" values="0 0 0 0 0 0 0 0 0 0 0 0 0 0 0 0 0 0 0.25 0"/>
<feBlend mode="normal" in2="BackgroundImageFix" result="effect1_dropShadow_36_185"/>
<feColorMatrix in="SourceAlpha" type="matrix" values="0 0 0 0 0 0 0 0 0 0 0 0 0 0 0 0 0 0 127 0" result="hardAlpha"/>
<feOffset dy="4"/>
<feGaussianBlur stdDeviation="2"/>
<feComposite in2="hardAlpha" operator="out"/>
<feColorMatrix type="matrix" values="0 0 0 0 0 0 0 0 0 0 0 0 0 0 0 0 0 0 0.25 0"/>
<feBlend mode="normal" in2="effect1_dropShadow_36_185" result="effect2_dropShadow_36_185"/>
<feBlend mode="normal" in="SourceGraphic" in2="effect2_dropShadow_36_185" result="shape"/>
</filter>
<filter id="filter1_dd_36_185" x="992" y="-138" width="537" height="477" filterUnits="userSpaceOnUse" color-interpolation-filters="sRGB">
<feFlood flood-opacity="0" result="BackgroundImageFix"/>
<feColorMatrix in="SourceAlpha" type="matrix" values="0 0 0 0 0 0 0 0 0 0 0 0 0 0 0 0 0 0 127 0" result="hardAlpha"/>
<feOffset dy="4"/>
<feGaussianBlur stdDeviation="2"/>
<feComposite in2="hardAlpha" operator="out"/>
<feColorMatrix type="matrix" values="0 0 0 0 0 0 0 0 0 0 0 0 0 0 0 0 0 0 0.25 0"/>
<feBlend mode="normal" in2="BackgroundImageFix" result="effect1_dropShadow_36_185"/>
<feColorMatrix in="SourceAlpha" type="matrix" values="0 0 0 0 0 0 0 0 0 0 0 0 0 0 0 0 0 0 127 0" result="hardAlpha"/>
<feOffset dy="4"/>
<feGaussianBlur stdDeviation="2"/>
<feComposite in2="hardAlpha" operator="out"/>
<feColorMatrix type="matrix" values="0 0 0 0 0 0 0 0 0 0 0 0 0 0 0 0 0 0 0.25 0"/>
<feBlend mode="normal" in2="effect1_dropShadow_36_185" result="effect2_dropShadow_36_185"/>
<feBlend mode="normal" in="SourceGraphic" in2="effect2_dropShadow_36_185" result="shape"/>
</filter>
</defs>
</svg>
