<svg width="112" height="138" viewBox="0 0 112 138" fill="none" xmlns="http://www.w3.org/2000/svg">
<path d="M34.4616 86.25H77.5386C91.8401 86.25 103.385 97.8075 103.385 112.125V129.375H8.61548V112.125C8.61548 97.8075 20.1601 86.25 34.4616 86.25ZM34.4616 34.5H77.5386V56.0625C77.5386 61.7812 75.2693 67.2657 71.2301 71.3095C67.1908 75.3532 61.7125 77.625 56.0001 77.625C50.2877 77.625 44.8093 75.3532 40.7701 71.3095C36.7309 67.2657 34.4616 61.7812 34.4616 56.0625V34.5ZM77.5386 34.5C82.277 34.5 86.1539 38.3812 86.1539 43.125C86.1539 47.8688 82.277 51.75 77.5386 51.75V34.5ZM34.4616 51.75C29.7232 51.75 25.8462 47.8688 25.8462 43.125C25.8462 38.3812 29.7232 34.5 34.4616 34.5V51.75Z" fill="black"/>
<path d="M35.4954 35.5351H31.1877C24.7262 30.1876 25.8462 21.9938 25.8462 15.0938C25.8462 8.19382 30.1539 12.8513 34.4616 12.8513C38.7693 12.8513 43.077 17.1638 43.077 17.1638C35.4954 17.1638 34.4616 8.53882 34.4616 8.53882H60.3077C69.7847 8.53882 77.5385 16.3013 77.5385 25.7888H81.8462C81.8462 25.7888 84 32.2576 80.8124 36.5701L35.5816 35.5351H35.4954Z" fill="black"/>
</svg>
