<svg width="477" height="389" viewBox="0 0 477 389" fill="none" xmlns="http://www.w3.org/2000/svg">
<g filter="url(#filter0_dd_9_144)">
<circle cx="12.5" cy="12.5" r="12.5" transform="matrix(-1 0 0 1 284 335)" fill="#4174D9"/>
<circle cx="12.5" cy="12.5" r="12.5" transform="matrix(-1 0 0 1 147 83)" fill="#4174D9"/>
<circle cx="12.5" cy="12.5" r="12.5" transform="matrix(-1 0 0 1 113 211)" fill="#4174D9"/>
<circle cx="12.5" cy="12.5" r="12.5" transform="matrix(-1 0 0 1 172 311)" fill="#4174D9"/>
<circle cx="12.5" cy="12.5" r="12.5" transform="matrix(-1 0 0 1 417 139)" fill="#4174D9"/>
<circle cx="12.5" cy="12.5" r="12.5" transform="matrix(-1 0 0 1 326 83)" fill="#4174D9"/>
<circle cx="12.5" cy="12.5" r="12.5" transform="matrix(-1 0 0 1 41 145)" fill="#4174D9"/>
<circle cx="12.5" cy="12.5" r="12.5" transform="matrix(-1 0 0 1 361 211)" fill="#4174D9"/>
<circle cx="12.5" cy="12.5" r="12.5" transform="matrix(-1 0 0 1 237 189)" fill="#4174D9"/>
<circle cx="12.5" cy="12.5" r="12.5" transform="matrix(-1 0 0 1 28 324)" fill="#4174D9"/>
<circle cx="12.5" cy="12.5" r="12.5" transform="matrix(-1 0 0 1 430 323)" fill="#4174D9"/>
<line y1="-1" x2="107.187" y2="-1" transform="matrix(-0.858315 -0.513123 -0.513123 0.858315 403 150)" stroke="#2E6FF2" stroke-width="2" stroke-dasharray="13 13"/>
<line y1="-1" x2="90" y2="-1" transform="matrix(0 -1 -1 0 313 90)" stroke="#2E6FF2" stroke-width="2" stroke-dasharray="13 13"/>
<line y1="-1" x2="102.801" y2="-1" transform="matrix(-0.603108 -0.797659 -0.797659 0.603108 77 426)" stroke="#2E6FF2" stroke-width="2" stroke-dasharray="13 13"/>
<line y1="-1" x2="120.071" y2="-1" transform="matrix(0.133255 -0.991082 -0.991082 -0.133255 139 451)" stroke="#2E6FF2" stroke-width="2" stroke-dasharray="13 13"/>
<line y1="-1" x2="115.261" y2="-1" transform="matrix(-0.147492 -0.989063 -0.989063 0.147492 284 469)" stroke="#2E6FF2" stroke-width="2" stroke-dasharray="13 13"/>
<line y1="-1" x2="116.606" y2="-1" transform="matrix(0.591735 -0.806132 -0.806132 -0.591735 -56 434)" stroke="#2E6FF2" stroke-width="2" stroke-dasharray="13 13"/>
<line x1="134.153" y1="94.5319" x2="85.1532" y2="16.532" stroke="#2E6FF2" stroke-width="2" stroke-dasharray="13 13"/>
<line y1="-1" x2="140.207" y2="-1" transform="matrix(-0.591982 0.805951 0.805951 0.591982 101 223)" stroke="#2E6FF2" stroke-width="2" stroke-dasharray="13 13"/>
<line y1="-1" x2="98.0816" y2="-1" transform="matrix(-0.774865 -0.632127 -0.632127 0.774865 100 223)" stroke="#2E6FF2" stroke-width="2" stroke-dasharray="13 13"/>
<line y1="-1" x2="215.114" y2="-1" transform="matrix(-0.897199 0.441626 0.441626 0.897199 348 225)" stroke="#2E6FF2" stroke-width="2" stroke-dasharray="13 13"/>
<line y1="-1" x2="133.522" y2="-1" transform="matrix(-0.284598 -0.958647 -0.958647 0.284598 351 223)" stroke="#2E6FF2" stroke-width="2" stroke-dasharray="13 13"/>
<line y1="-1" x2="144.627" y2="-1" transform="matrix(-0.615376 0.788234 0.788234 0.615376 313 93)" stroke="#2E6FF2" stroke-width="2" stroke-dasharray="13 13"/>
<line y1="-1" x2="178.011" y2="-1" transform="matrix(-0.999937 -0.0112352 -0.0112352 0.999937 313 95)" stroke="#2E6FF2" stroke-width="2" stroke-dasharray="13 13"/>
<line y1="-1" x2="177.102" y2="-1" transform="matrix(0.0338789 -0.999426 -0.999426 -0.0338789 15 336)" stroke="#2E6FF2" stroke-width="2" stroke-dasharray="13 13"/>
<line y1="-1" x2="114.978" y2="-1" transform="matrix(-0.974097 -0.22613 -0.22613 0.974097 268 349)" stroke="#2E6FF2" stroke-width="2" stroke-dasharray="13 13"/>
<line y1="-1" x2="146.578" y2="-1" transform="matrix(-0.996059 0.0886902 0.0886902 0.996059 417 336)" stroke="#2E6FF2" stroke-width="2" stroke-dasharray="13 13"/>
<line y1="-1" x2="179.402" y2="-1" transform="matrix(-0.066889 -0.99776 -0.99776 0.066889 417 330)" stroke="#2E6FF2" stroke-width="2" stroke-dasharray="13 13"/>
<line y1="-1" x2="141.152" y2="-1" transform="matrix(-0.991836 0.127522 0.127522 0.991836 156 323)" stroke="#2E6FF2" stroke-width="2" stroke-dasharray="13 13"/>
<line y1="-1" x2="113.877" y2="-1" transform="matrix(-0.860577 0.509321 0.509321 0.860577 131 99)" stroke="#2E6FF2" stroke-width="2" stroke-dasharray="13 13"/>
<line y1="-1" x2="122.188" y2="-1" transform="matrix(-0.482861 -0.875697 -0.875697 0.482861 159 330)" stroke="#2E6FF2" stroke-width="2" stroke-dasharray="13 13"/>
<line y1="-1" x2="120.669" y2="-1" transform="matrix(-0.986169 0.165743 0.165743 0.986169 220 203)" stroke="#2E6FF2" stroke-width="2" stroke-dasharray="13 13"/>
<line y1="-1" x2="143.178" y2="-1" transform="matrix(-0.656524 -0.754305 -0.754305 0.656524 224 203)" stroke="#2E6FF2" stroke-width="2" stroke-dasharray="13 13"/>
<line y1="-1" x2="146.492" y2="-1" transform="matrix(0.532451 -0.846461 -0.846461 -0.532451 271 347)" stroke="#2E6FF2" stroke-width="2" stroke-dasharray="13 13"/>
<line y1="-1" x2="128.891" y2="-1" transform="matrix(-0.985325 -0.170686 -0.170686 0.985325 349 225)" stroke="#2E6FF2" stroke-width="2" stroke-dasharray="13 13"/>
<line y1="-1" x2="122.642" y2="-1" transform="matrix(-0.529999 -0.847998 -0.847998 0.529999 414 330)" stroke="#2E6FF2" stroke-width="2" stroke-dasharray="13 13"/>
<line y1="-1" x2="96.8298" y2="-1" transform="matrix(-0.619644 0.784883 0.784883 0.619644 405 150)" stroke="#2E6FF2" stroke-width="2" stroke-dasharray="13 13"/>
<line y1="-1" x2="57.9741" y2="-1" transform="matrix(-0.965948 0.258736 0.258736 0.965948 473 134)" stroke="#2E6FF2" stroke-width="2" stroke-dasharray="13 13"/>
<line y1="-1" x2="63.5138" y2="-1" transform="matrix(-0.551062 -0.834465 -0.834465 0.551062 455 388)" stroke="#2E6FF2" stroke-width="2" stroke-dasharray="13 13"/>
<line y1="-1" x2="54.3783" y2="-1" transform="matrix(-0.845926 -0.533301 -0.533301 0.845926 32 157)" stroke="#2E6FF2" stroke-width="2" stroke-dasharray="13 13"/>
</g>
<defs>
<filter id="filter0_dd_9_144" x="-60" y="0" width="537" height="477" filterUnits="userSpaceOnUse" color-interpolation-filters="sRGB">
<feFlood flood-opacity="0" result="BackgroundImageFix"/>
<feColorMatrix in="SourceAlpha" type="matrix" values="0 0 0 0 0 0 0 0 0 0 0 0 0 0 0 0 0 0 127 0" result="hardAlpha"/>
<feOffset dy="4"/>
<feGaussianBlur stdDeviation="2"/>
<feComposite in2="hardAlpha" operator="out"/>
<feColorMatrix type="matrix" values="0 0 0 0 0 0 0 0 0 0 0 0 0 0 0 0 0 0 0.25 0"/>
<feBlend mode="normal" in2="BackgroundImageFix" result="effect1_dropShadow_9_144"/>
<feColorMatrix in="SourceAlpha" type="matrix" values="0 0 0 0 0 0 0 0 0 0 0 0 0 0 0 0 0 0 127 0" result="hardAlpha"/>
<feOffset dy="4"/>
<feGaussianBlur stdDeviation="2"/>
<feComposite in2="hardAlpha" operator="out"/>
<feColorMatrix type="matrix" values="0 0 0 0 0 0 0 0 0 0 0 0 0 0 0 0 0 0 0.25 0"/>
<feBlend mode="normal" in2="effect1_dropShadow_9_144" result="effect2_dropShadow_9_144"/>
<feBlend mode="normal" in="SourceGraphic" in2="effect2_dropShadow_9_144" result="shape"/>
</filter>
</defs>
</svg>
