<svg width="344" height="71" viewBox="0 0 344 71" fill="none" xmlns="http://www.w3.org/2000/svg">
<ellipse cx="33.6784" cy="35.4578" rx="33.6784" ry="35.4578" fill="#3ACAA8"/>
<path d="M30.0861 2.70001C24.0443 6.00002 19.4642 12.1 18.6846 17.7C18.1973 21.7 18.1973 21.7 21.9004 22.3C27.455 23.3 28.1371 23.2 28.1371 21.5C28.1371 18.2 31.2555 14 34.9585 12C38.2718 10.3 40.6105 10 52.6942 10C65.3625 10 67.0191 10.2 70.5273 12.3C72.9635 13.7 75.2048 16.1 76.3742 18.5C77.4461 20.7 78.4206 22.7 78.5181 22.9C78.6155 23.1 80.7594 22.9 83.1956 22.6C86.7037 22 87.5808 21.5 87.5808 19.9C87.5808 14.1 80.7594 4.80002 74.4252 1.90001C71.112 0.300014 67.7987 1.33514e-05 52.8891 1.33514e-05C35.4458 1.33514e-05 35.1534 1.33514e-05 30.0861 2.70001Z" fill="black"/>
<path d="M95.7665 18.4C95.4742 19.2 95.3767 21.3 95.5716 23.2C95.864 26.4 95.9614 26.5 101.029 26.8L106.096 27.1V41.1C106.096 48.9 106.583 56 107.071 57.1C107.85 58.6 109.214 59 112.917 59H117.79V43V27H122.565C128.119 27 129.776 25.5 129.289 20.8L128.996 17.5L112.625 17.2C99.1772 17 96.2538 17.2 95.7665 18.4Z" fill="black"/>
<path d="M265.912 32.5C265.912 49.1 266.399 51.4 270.979 55.6C278.385 62.5 293.587 60.9 299.434 52.7C301.286 50.2 301.481 48.1 301.773 34.9C302.065 24.3 301.773 19.5 300.993 18.4C300.214 17.5 297.972 17 295.049 17H290.274V31.3C290.274 47.7 289.494 50 284.037 50C278.385 50 277.606 48 277.606 33.6C277.606 26.6 277.118 20 276.631 18.9C275.852 17.4 274.487 17 270.784 17H265.912V32.5Z" fill="black"/>
<path d="M145.758 24.9999C137.28 26.5999 133.089 32.8999 133.577 42.9999C133.966 50.8999 136.598 55.2999 142.542 58.0999C150.046 61.5999 162.616 59.7999 164.078 55.0999C164.955 52.1999 162.909 48.5999 160.862 49.5999C157.549 51.1999 148.584 51.1999 146.537 49.5999C143.711 47.3999 145.368 46.4999 154.82 45.0999C159.401 44.3999 163.688 43.3999 164.37 42.7999C165.93 41.3999 165.832 35.4999 164.078 31.9999C161.35 26.4999 153.359 23.4999 145.758 24.9999ZM152.969 33.9999C155.99 35.6999 155.113 36.7999 149.948 37.8999C147.22 38.4999 144.783 38.9999 144.588 38.9999C143.516 38.9999 144.199 36.4999 145.758 34.7999C147.512 32.7999 150.143 32.4999 152.969 33.9999Z" fill="black"/>
<path d="M178.988 24.8999C177.039 25.2999 174.7 26.1999 173.92 26.9999C172.361 28.2999 171.776 33.4999 173.141 34.2999C173.53 34.5999 176.162 34.2999 178.89 33.6999C184.64 32.4999 189.415 33.5999 189.415 35.9999C189.415 37.0999 187.758 37.6999 183.373 38.1999C175.285 39.0999 171.679 41.0999 170.51 45.4999C168.171 54.1999 174.115 59.9999 185.224 59.9999C191.851 59.9999 196.918 58.4999 199.257 55.8999C200.816 54.0999 201.011 52.4999 200.816 43.1999C200.524 31.5999 199.549 28.9999 194.969 26.5999C191.558 24.7999 183.568 23.9999 178.988 24.8999ZM189.902 47.8999C189.902 50.1999 189.415 50.8999 187.271 51.2999C184.055 51.8999 181.131 50.4999 181.131 48.3999C181.131 46.7999 184.25 45.1999 187.758 45.0999C189.512 44.9999 189.902 45.4999 189.902 47.8999Z" fill="black"/>
<path d="M216.895 25.3999C208.515 27.7999 208.32 28.2999 208.612 44.3999L208.904 58.3999L211.438 59.0999C212.9 59.3999 215.141 59.4999 216.603 59.2999L219.039 58.7999L219.331 46.5999L219.624 34.4999H223.034H226.445L226.932 45.6999C227.225 51.8999 227.907 57.2999 228.394 57.8999C229.466 58.8999 231.805 59.2999 235.898 59.0999L238.529 58.9999L238.821 46.6999L239.114 34.4999H242.524H245.935L246.227 45.6999C246.52 57.3999 247.007 58.6999 251.295 59.0999C258.408 59.7999 258.116 60.2999 258.116 46.9999C258.116 32.8999 256.947 28.9999 252.074 26.3999C248.274 24.2999 241.16 24.0999 236.872 25.8999C234.533 26.8999 233.072 26.9999 231.123 26.1999C226.445 24.2999 221.768 23.9999 216.895 25.3999Z" fill="black"/>
<path d="M319.216 24.9C317.17 25.4 314.344 26.6 312.882 27.7L310.251 29.7L309.959 48.4C309.861 60.1 310.056 67.8 310.738 69C311.518 70.6 312.785 71 316.585 71H321.458V65.2V59.5H327.694C334.711 59.4 338.024 57.7 340.947 52.7C346.404 43.6 343.189 30.1 334.711 26.5C330.52 24.7 323.601 24 319.216 24.9ZM330.033 35.2C334.808 41.5 330.52 52.3 323.894 50.6C321.555 50 321.458 49.7 321.458 42V34H325.258C327.304 34 329.448 34.6 330.033 35.2Z" fill="black"/>
<path d="M17.8076 33.6C16.8331 37.7 18.2949 53.9001 20.0489 57.4001C24.2392 65.9001 31.353 70.3001 41.2928 70.4001L48.1142 70.5001V65.5001V60.5001L41.3902 59.9001C35.056 59.3001 34.3739 59.1001 31.353 55.5001C28.3321 51.9001 28.2346 51.4001 27.9423 41.6L27.6499 31.5L23.0699 31.2C18.7821 30.9 18.3923 31.1 17.8076 33.6Z" fill="black"/>
<path d="M77.836 40C77.836 45.5 77.2514 50.4 76.4718 52.4C74.5228 57.2 69.5529 60 62.829 60H57.3718V65.5V71H62.0494C72.6713 71 80.9544 66.2 85.1447 57.7C87.2886 53.2 87.5809 51.4 87.5809 41.8V31H82.7085H77.836V40Z" fill="black"/>
</svg>
