<svg width="469" height="423" viewBox="0 0 469 423" fill="none" xmlns="http://www.w3.org/2000/svg">
<g filter="url(#filter0_dd_4_358)">
<circle cx="183.5" cy="293.5" r="12.5" fill="#3ACAA8"/>
<circle cx="320.5" cy="41.5" r="12.5" fill="#3ACAA8"/>
<circle cx="354.5" cy="169.5" r="12.5" fill="#3ACAA8"/>
<circle cx="295.5" cy="269.5" r="12.5" fill="#3ACAA8"/>
<circle cx="50.5" cy="97.5" r="12.5" fill="#3ACAA8"/>
<circle cx="141.5" cy="41.5" r="12.5" fill="#3ACAA8"/>
<circle cx="426.5" cy="103.5" r="12.5" fill="#3ACAA8"/>
<circle cx="106.5" cy="169.5" r="12.5" fill="#3ACAA8"/>
<circle cx="230.5" cy="147.5" r="12.5" fill="#3ACAA8"/>
<circle cx="439.5" cy="282.5" r="12.5" fill="#3ACAA8"/>
<circle cx="37.5" cy="281.5" r="12.5" fill="#3ACAA8"/>
<line x1="51.4869" y1="95.1417" x2="143.487" y2="40.1417" stroke="#3ACAA8" stroke-width="2" stroke-dasharray="13 13"/>
<line x1="141" y1="36" x2="141" y2="-54" stroke="#3ACAA8" stroke-width="2" stroke-dasharray="13 13"/>
<line x1="377.202" y1="371.397" x2="439.202" y2="289.397" stroke="#3ACAA8" stroke-width="2" stroke-dasharray="13 13"/>
<line x1="315.009" y1="397.133" x2="299.009" y2="278.133" stroke="#3ACAA8" stroke-width="2" stroke-dasharray="13 13"/>
<line x1="170.011" y1="414.853" x2="187.011" y2="300.853" stroke="#3ACAA8" stroke-width="2" stroke-dasharray="13 13"/>
<line x1="510.194" y1="380.592" x2="441.194" y2="286.592" stroke="#3ACAA8" stroke-width="2" stroke-dasharray="13 13"/>
<line x1="319.487" y1="39.1417" x2="411.487" y2="-15.8583" stroke="#3ACAA8" stroke-width="2" stroke-dasharray="13 13"/>
<line x1="354.806" y1="168.408" x2="437.806" y2="281.408" stroke="#3ACAA8" stroke-width="2" stroke-dasharray="13 13"/>
<line x1="354.368" y1="168.225" x2="430.368" y2="106.225" stroke="#3ACAA8" stroke-width="2" stroke-dasharray="13 13"/>
<line x1="107.442" y1="170.103" x2="300.442" y2="265.103" stroke="#3ACAA8" stroke-width="2" stroke-dasharray="13 13"/>
<line x1="103.041" y1="168.715" x2="141.041" y2="40.7154" stroke="#3ACAA8" stroke-width="2" stroke-dasharray="13 13"/>
<line x1="142.788" y1="38.3846" x2="231.788" y2="152.385" stroke="#3ACAA8" stroke-width="2" stroke-dasharray="13 13"/>
<line x1="141.989" y1="40.0001" x2="319.989" y2="38.0001" stroke="#3ACAA8" stroke-width="2" stroke-dasharray="13 13"/>
<line x1="439.001" y1="282.034" x2="433.001" y2="105.034" stroke="#3ACAA8" stroke-width="2" stroke-dasharray="13 13"/>
<line x1="186.774" y1="294.026" x2="298.774" y2="268.026" stroke="#3ACAA8" stroke-width="2" stroke-dasharray="13 13"/>
<line x1="38.0887" y1="281.004" x2="184.089" y2="294.004" stroke="#3ACAA8" stroke-width="2" stroke-dasharray="13 13"/>
<line x1="37.0022" y1="275.933" x2="49.0022" y2="96.9331" stroke="#3ACAA8" stroke-width="2" stroke-dasharray="13 13"/>
<line x1="299.128" y1="268.008" x2="439.128" y2="286.008" stroke="#3ACAA8" stroke-width="2" stroke-dasharray="13 13"/>
<line x1="324.509" y1="44.1394" x2="422.509" y2="102.139" stroke="#3ACAA8" stroke-width="2" stroke-dasharray="13 13"/>
<line x1="295.124" y1="275.517" x2="354.124" y2="168.517" stroke="#3ACAA8" stroke-width="2" stroke-dasharray="13 13"/>
<line x1="235.166" y1="148.014" x2="354.166" y2="168.014" stroke="#3ACAA8" stroke-width="2" stroke-dasharray="13 13"/>
<line x1="230.246" y1="148.343" x2="324.246" y2="40.3435" stroke="#3ACAA8" stroke-width="2" stroke-dasharray="13 13"/>
<line x1="183.154" y1="293.532" x2="105.154" y2="169.532" stroke="#3ACAA8" stroke-width="2" stroke-dasharray="13 13"/>
<line x1="105.829" y1="170.015" x2="232.829" y2="148.015" stroke="#3ACAA8" stroke-width="2" stroke-dasharray="13 13"/>
<line x1="40.152" y1="275.47" x2="105.152" y2="171.47" stroke="#3ACAA8" stroke-width="2" stroke-dasharray="13 13"/>
<line x1="50.7849" y1="95.3804" x2="110.785" y2="171.38" stroke="#3ACAA8" stroke-width="2" stroke-dasharray="13 13"/>
<line x1="-17.7413" y1="79.0341" x2="38.2587" y2="94.034" stroke="#3ACAA8" stroke-width="2" stroke-dasharray="13 13"/>
<line x1="-0.834465" y1="333.449" x2="34.1655" y2="280.449" stroke="#3ACAA8" stroke-width="2" stroke-dasharray="13 13"/>
<line x1="422.467" y1="102.154" x2="468.467" y2="73.1541" stroke="#3ACAA8" stroke-width="2" stroke-dasharray="13 13"/>
</g>
<defs>
<filter id="filter0_dd_4_358" x="-22" y="-54" width="537" height="477" filterUnits="userSpaceOnUse" color-interpolation-filters="sRGB">
<feFlood flood-opacity="0" result="BackgroundImageFix"/>
<feColorMatrix in="SourceAlpha" type="matrix" values="0 0 0 0 0 0 0 0 0 0 0 0 0 0 0 0 0 0 127 0" result="hardAlpha"/>
<feOffset dy="4"/>
<feGaussianBlur stdDeviation="2"/>
<feComposite in2="hardAlpha" operator="out"/>
<feColorMatrix type="matrix" values="0 0 0 0 0 0 0 0 0 0 0 0 0 0 0 0 0 0 0.25 0"/>
<feBlend mode="normal" in2="BackgroundImageFix" result="effect1_dropShadow_4_358"/>
<feColorMatrix in="SourceAlpha" type="matrix" values="0 0 0 0 0 0 0 0 0 0 0 0 0 0 0 0 0 0 127 0" result="hardAlpha"/>
<feOffset dy="4"/>
<feGaussianBlur stdDeviation="2"/>
<feComposite in2="hardAlpha" operator="out"/>
<feColorMatrix type="matrix" values="0 0 0 0 0 0 0 0 0 0 0 0 0 0 0 0 0 0 0.25 0"/>
<feBlend mode="normal" in2="effect1_dropShadow_4_358" result="effect2_dropShadow_4_358"/>
<feBlend mode="normal" in="SourceGraphic" in2="effect2_dropShadow_4_358" result="shape"/>
</filter>
</defs>
</svg>
